<mxfile host="app.diagrams.net" modified="2023-12-25T11:06:24.634Z" agent="Mozilla/5.0 (X11; Linux x86_64) AppleWebKit/537.36 (KHTML, like Gecko) Chrome/120.0.0.0 Safari/537.36" etag="uFk6CnDgZU6kyuUW0HGW" version="22.1.11" type="github">
  <diagram id="C5RBs43oDa-KdzZeNtuy" name="Page-1">
    <mxGraphModel dx="1373" dy="756" grid="1" gridSize="10" guides="1" tooltips="1" connect="1" arrows="1" fold="1" page="1" pageScale="1" pageWidth="827" pageHeight="1169" math="0" shadow="0">
      <root>
        <mxCell id="WIyWlLk6GJQsqaUBKTNV-0" />
        <mxCell id="WIyWlLk6GJQsqaUBKTNV-1" parent="WIyWlLk6GJQsqaUBKTNV-0" />
        <mxCell id="13oA7SEDSkNbHaSKGy5j-3" value="" style="group;fillColor=#f5f5f5;fontColor=#333333;strokeColor=#666666;" vertex="1" connectable="0" parent="WIyWlLk6GJQsqaUBKTNV-1">
          <mxGeometry x="40" y="30" width="314" height="575" as="geometry" />
        </mxCell>
        <mxCell id="WIyWlLk6GJQsqaUBKTNV-3" value="get planning" style="rounded=1;whiteSpace=wrap;html=1;fontSize=12;glass=0;strokeWidth=1;shadow=0;" parent="13oA7SEDSkNbHaSKGy5j-3" vertex="1">
          <mxGeometry x="100" y="70" width="120" height="40" as="geometry" />
        </mxCell>
        <mxCell id="WIyWlLk6GJQsqaUBKTNV-10" value="planning received" style="rhombus;whiteSpace=wrap;html=1;shadow=0;fontFamily=Helvetica;fontSize=12;align=center;strokeWidth=1;spacing=6;spacingTop=-4;" parent="13oA7SEDSkNbHaSKGy5j-3" vertex="1">
          <mxGeometry x="175" y="170" width="100" height="80" as="geometry" />
        </mxCell>
        <mxCell id="WIyWlLk6GJQsqaUBKTNV-8" value="No" style="rounded=0;html=1;jettySize=auto;orthogonalLoop=1;fontSize=11;endArrow=block;endFill=0;endSize=8;strokeWidth=1;shadow=0;labelBackgroundColor=none;edgeStyle=orthogonalEdgeStyle;entryX=0.5;entryY=0;entryDx=0;entryDy=0;" parent="13oA7SEDSkNbHaSKGy5j-3" source="WIyWlLk6GJQsqaUBKTNV-10" target="13oA7SEDSkNbHaSKGy5j-49" edge="1">
          <mxGeometry x="0.3333" y="20" relative="1" as="geometry">
            <mxPoint as="offset" />
            <mxPoint x="240" y="350" as="targetPoint" />
          </mxGeometry>
        </mxCell>
        <mxCell id="13oA7SEDSkNbHaSKGy5j-9" value="PLANNING-REQUESTER" style="text;strokeColor=none;align=center;fillColor=none;html=1;verticalAlign=middle;whiteSpace=wrap;rounded=0;" vertex="1" parent="13oA7SEDSkNbHaSKGy5j-3">
          <mxGeometry x="65.33000000000004" y="20" width="183.34" height="30" as="geometry" />
        </mxCell>
        <mxCell id="13oA7SEDSkNbHaSKGy5j-42" value="is progress 100%" style="rhombus;whiteSpace=wrap;html=1;shadow=0;fontFamily=Helvetica;fontSize=12;align=center;strokeWidth=1;spacing=6;spacingTop=-4;" vertex="1" parent="13oA7SEDSkNbHaSKGy5j-3">
          <mxGeometry x="200" y="460" width="100" height="80" as="geometry" />
        </mxCell>
        <mxCell id="13oA7SEDSkNbHaSKGy5j-49" value="process planning" style="rounded=1;whiteSpace=wrap;html=1;fontSize=12;glass=0;strokeWidth=1;shadow=0;" vertex="1" parent="13oA7SEDSkNbHaSKGy5j-3">
          <mxGeometry x="190" y="350" width="70" height="40" as="geometry" />
        </mxCell>
        <mxCell id="13oA7SEDSkNbHaSKGy5j-51" value="planning&lt;br&gt;created" style="rhombus;whiteSpace=wrap;html=1;shadow=0;fontFamily=Helvetica;fontSize=12;align=center;strokeWidth=1;spacing=6;spacingTop=-4;" vertex="1" parent="13oA7SEDSkNbHaSKGy5j-3">
          <mxGeometry x="40" y="340" width="100" height="80" as="geometry" />
        </mxCell>
        <mxCell id="13oA7SEDSkNbHaSKGy5j-52" value="" style="endArrow=classic;html=1;rounded=0;entryX=1;entryY=0.5;entryDx=0;entryDy=0;exitX=0;exitY=0.5;exitDx=0;exitDy=0;" edge="1" parent="13oA7SEDSkNbHaSKGy5j-3" source="13oA7SEDSkNbHaSKGy5j-49" target="13oA7SEDSkNbHaSKGy5j-51">
          <mxGeometry width="50" height="50" relative="1" as="geometry">
            <mxPoint x="350" y="430" as="sourcePoint" />
            <mxPoint x="400" y="380" as="targetPoint" />
          </mxGeometry>
        </mxCell>
        <mxCell id="13oA7SEDSkNbHaSKGy5j-4" value="" style="group;fillColor=#e1d5e7;strokeColor=#9673a6;" vertex="1" connectable="0" parent="WIyWlLk6GJQsqaUBKTNV-1">
          <mxGeometry x="460" y="25" width="320" height="580" as="geometry" />
        </mxCell>
        <mxCell id="WIyWlLk6GJQsqaUBKTNV-6" value="bestPlanning available" style="rhombus;whiteSpace=wrap;html=1;shadow=0;fontFamily=Helvetica;fontSize=12;align=center;strokeWidth=1;spacing=6;spacingTop=-4;" parent="13oA7SEDSkNbHaSKGy5j-4" vertex="1">
          <mxGeometry x="53.33" y="140" width="106.67" height="110" as="geometry" />
        </mxCell>
        <mxCell id="13oA7SEDSkNbHaSKGy5j-1" value="planning&lt;br&gt;create&lt;br&gt;command" style="rounded=1;whiteSpace=wrap;html=1;fontSize=12;glass=0;strokeWidth=1;shadow=0;" vertex="1" parent="13oA7SEDSkNbHaSKGy5j-4">
          <mxGeometry x="170" y="325" width="120" height="50" as="geometry" />
        </mxCell>
        <mxCell id="13oA7SEDSkNbHaSKGy5j-8" style="edgeStyle=orthogonalEdgeStyle;rounded=0;orthogonalLoop=1;jettySize=auto;html=1;" edge="1" parent="13oA7SEDSkNbHaSKGy5j-4" source="13oA7SEDSkNbHaSKGy5j-7">
          <mxGeometry relative="1" as="geometry">
            <mxPoint x="160" y="45" as="targetPoint" />
          </mxGeometry>
        </mxCell>
        <mxCell id="13oA7SEDSkNbHaSKGy5j-7" value="SPORTS-SCHEDULER-API" style="text;strokeColor=none;align=center;fillColor=none;html=1;verticalAlign=middle;whiteSpace=wrap;rounded=0;" vertex="1" parent="13oA7SEDSkNbHaSKGy5j-4">
          <mxGeometry x="68.33" y="10" width="183.34" height="30" as="geometry" />
        </mxCell>
        <mxCell id="13oA7SEDSkNbHaSKGy5j-20" value="provide progress" style="rounded=1;whiteSpace=wrap;html=1;fontSize=12;glass=0;strokeWidth=1;shadow=0;" vertex="1" parent="13oA7SEDSkNbHaSKGy5j-4">
          <mxGeometry x="10" y="470" width="120" height="50" as="geometry" />
        </mxCell>
        <mxCell id="13oA7SEDSkNbHaSKGy5j-5" value="" style="endArrow=classic;html=1;rounded=0;exitX=1;exitY=0.75;exitDx=0;exitDy=0;entryX=0;entryY=0.5;entryDx=0;entryDy=0;" edge="1" parent="WIyWlLk6GJQsqaUBKTNV-1" source="WIyWlLk6GJQsqaUBKTNV-3" target="WIyWlLk6GJQsqaUBKTNV-6">
          <mxGeometry width="50" height="50" relative="1" as="geometry">
            <mxPoint x="390" y="410" as="sourcePoint" />
            <mxPoint x="570" y="220" as="targetPoint" />
          </mxGeometry>
        </mxCell>
        <mxCell id="13oA7SEDSkNbHaSKGy5j-10" value="request planning" style="edgeLabel;html=1;align=center;verticalAlign=middle;resizable=0;points=[];" vertex="1" connectable="0" parent="13oA7SEDSkNbHaSKGy5j-5">
          <mxGeometry x="0.1386" y="-1" relative="1" as="geometry">
            <mxPoint as="offset" />
          </mxGeometry>
        </mxCell>
        <mxCell id="13oA7SEDSkNbHaSKGy5j-11" value="" style="endArrow=classic;html=1;rounded=0;entryX=1;entryY=0.5;entryDx=0;entryDy=0;exitX=0;exitY=0.5;exitDx=0;exitDy=0;" edge="1" parent="WIyWlLk6GJQsqaUBKTNV-1" source="WIyWlLk6GJQsqaUBKTNV-6" target="WIyWlLk6GJQsqaUBKTNV-10">
          <mxGeometry width="50" height="50" relative="1" as="geometry">
            <mxPoint x="390" y="410" as="sourcePoint" />
            <mxPoint x="440" y="360" as="targetPoint" />
          </mxGeometry>
        </mxCell>
        <mxCell id="13oA7SEDSkNbHaSKGy5j-12" value="send answer" style="edgeLabel;html=1;align=center;verticalAlign=middle;resizable=0;points=[];" vertex="1" connectable="0" parent="13oA7SEDSkNbHaSKGy5j-11">
          <mxGeometry x="-0.2411" y="-2" relative="1" as="geometry">
            <mxPoint as="offset" />
          </mxGeometry>
        </mxCell>
        <mxCell id="13oA7SEDSkNbHaSKGy5j-21" value="" style="endArrow=classic;html=1;rounded=0;entryX=0;entryY=0.25;entryDx=0;entryDy=0;exitX=1;exitY=0.25;exitDx=0;exitDy=0;" edge="1" parent="WIyWlLk6GJQsqaUBKTNV-1" target="13oA7SEDSkNbHaSKGy5j-20">
          <mxGeometry width="50" height="50" relative="1" as="geometry">
            <mxPoint x="340" y="515" as="sourcePoint" />
            <mxPoint x="440" y="360" as="targetPoint" />
          </mxGeometry>
        </mxCell>
        <mxCell id="13oA7SEDSkNbHaSKGy5j-22" value="get progress" style="edgeLabel;html=1;align=center;verticalAlign=middle;resizable=0;points=[];" vertex="1" connectable="0" parent="13oA7SEDSkNbHaSKGy5j-21">
          <mxGeometry x="0.2963" y="-5" relative="1" as="geometry">
            <mxPoint as="offset" />
          </mxGeometry>
        </mxCell>
        <mxCell id="13oA7SEDSkNbHaSKGy5j-23" value="" style="endArrow=classic;html=1;rounded=0;entryX=1;entryY=0.75;entryDx=0;entryDy=0;exitX=0;exitY=0.75;exitDx=0;exitDy=0;" edge="1" parent="WIyWlLk6GJQsqaUBKTNV-1" source="13oA7SEDSkNbHaSKGy5j-20">
          <mxGeometry width="50" height="50" relative="1" as="geometry">
            <mxPoint x="400" y="440" as="sourcePoint" />
            <mxPoint x="340" y="535" as="targetPoint" />
          </mxGeometry>
        </mxCell>
        <mxCell id="13oA7SEDSkNbHaSKGy5j-32" value="&quot;planning-request&quot;-topic in queue" style="verticalLabelPosition=bottom;html=1;verticalAlign=top;align=center;strokeColor=none;fillColor=#00BEF2;shape=mxgraph.azure.service_bus_topics_and_subscriptions;pointerEvents=1;" vertex="1" parent="WIyWlLk6GJQsqaUBKTNV-1">
          <mxGeometry x="910" y="250" width="120" height="90" as="geometry" />
        </mxCell>
        <mxCell id="13oA7SEDSkNbHaSKGy5j-6" style="edgeStyle=orthogonalEdgeStyle;rounded=0;orthogonalLoop=1;jettySize=auto;html=1;entryX=0.5;entryY=1;entryDx=0;entryDy=0;exitX=0.96;exitY=0.5;exitDx=0;exitDy=0;exitPerimeter=0;" edge="1" parent="WIyWlLk6GJQsqaUBKTNV-1" source="13oA7SEDSkNbHaSKGy5j-32" target="13oA7SEDSkNbHaSKGy5j-1">
          <mxGeometry relative="1" as="geometry">
            <mxPoint x="590" y="680" as="sourcePoint" />
          </mxGeometry>
        </mxCell>
        <mxCell id="13oA7SEDSkNbHaSKGy5j-33" value="" style="endArrow=classic;html=1;rounded=0;exitX=0;exitY=0.5;exitDx=0;exitDy=0;" edge="1" parent="WIyWlLk6GJQsqaUBKTNV-1" source="13oA7SEDSkNbHaSKGy5j-40">
          <mxGeometry width="50" height="50" relative="1" as="geometry">
            <mxPoint x="390" y="340" as="sourcePoint" />
            <mxPoint x="90" y="225" as="targetPoint" />
          </mxGeometry>
        </mxCell>
        <mxCell id="13oA7SEDSkNbHaSKGy5j-41" value="" style="endArrow=classic;html=1;rounded=0;exitX=0;exitY=0.5;exitDx=0;exitDy=0;entryX=1;entryY=0.5;entryDx=0;entryDy=0;" edge="1" parent="WIyWlLk6GJQsqaUBKTNV-1" source="WIyWlLk6GJQsqaUBKTNV-10" target="13oA7SEDSkNbHaSKGy5j-40">
          <mxGeometry width="50" height="50" relative="1" as="geometry">
            <mxPoint x="230" y="225" as="sourcePoint" />
            <mxPoint x="90" y="225" as="targetPoint" />
          </mxGeometry>
        </mxCell>
        <mxCell id="13oA7SEDSkNbHaSKGy5j-48" value="yes" style="edgeLabel;html=1;align=center;verticalAlign=middle;resizable=0;points=[];" vertex="1" connectable="0" parent="13oA7SEDSkNbHaSKGy5j-41">
          <mxGeometry x="0.1335" relative="1" as="geometry">
            <mxPoint as="offset" />
          </mxGeometry>
        </mxCell>
        <mxCell id="13oA7SEDSkNbHaSKGy5j-40" value="use planning" style="rounded=1;whiteSpace=wrap;html=1;fontSize=12;glass=0;strokeWidth=1;shadow=0;" vertex="1" parent="WIyWlLk6GJQsqaUBKTNV-1">
          <mxGeometry x="70" y="200" width="70" height="40" as="geometry" />
        </mxCell>
        <mxCell id="13oA7SEDSkNbHaSKGy5j-43" value="&quot;planning-created&quot;-topic in queue" style="verticalLabelPosition=bottom;html=1;verticalAlign=top;align=center;strokeColor=none;fillColor=#00BEF2;shape=mxgraph.azure.service_bus_topics_and_subscriptions;pointerEvents=1;" vertex="1" parent="WIyWlLk6GJQsqaUBKTNV-1">
          <mxGeometry x="354" y="710" width="120" height="90" as="geometry" />
        </mxCell>
        <mxCell id="13oA7SEDSkNbHaSKGy5j-46" value="" style="edgeStyle=orthogonalEdgeStyle;rounded=0;orthogonalLoop=1;jettySize=auto;html=1;exitX=0.5;exitY=1;exitDx=0;exitDy=0;entryX=0.45;entryY=0;entryDx=0;entryDy=0;entryPerimeter=0;" edge="1" parent="WIyWlLk6GJQsqaUBKTNV-1" source="WIyWlLk6GJQsqaUBKTNV-6" target="13oA7SEDSkNbHaSKGy5j-32">
          <mxGeometry relative="1" as="geometry">
            <mxPoint x="630" y="370" as="targetPoint" />
          </mxGeometry>
        </mxCell>
        <mxCell id="13oA7SEDSkNbHaSKGy5j-47" value="no&lt;br&gt;send&lt;br&gt;request" style="edgeLabel;html=1;align=center;verticalAlign=middle;resizable=0;points=[];" vertex="1" connectable="0" parent="13oA7SEDSkNbHaSKGy5j-46">
          <mxGeometry x="-0.6684" y="2" relative="1" as="geometry">
            <mxPoint as="offset" />
          </mxGeometry>
        </mxCell>
        <mxCell id="13oA7SEDSkNbHaSKGy5j-50" value="" style="endArrow=classic;html=1;rounded=0;entryX=0.5;entryY=1;entryDx=0;entryDy=0;exitX=0;exitY=0.5;exitDx=0;exitDy=0;exitPerimeter=0;" edge="1" parent="WIyWlLk6GJQsqaUBKTNV-1" source="13oA7SEDSkNbHaSKGy5j-43" target="13oA7SEDSkNbHaSKGy5j-51">
          <mxGeometry width="50" height="50" relative="1" as="geometry">
            <mxPoint x="390" y="460" as="sourcePoint" />
            <mxPoint x="440" y="410" as="targetPoint" />
          </mxGeometry>
        </mxCell>
        <mxCell id="13oA7SEDSkNbHaSKGy5j-53" value="" style="endArrow=classic;html=1;rounded=0;entryX=1.033;entryY=0.556;entryDx=0;entryDy=0;entryPerimeter=0;exitX=0.25;exitY=1;exitDx=0;exitDy=0;" edge="1" parent="WIyWlLk6GJQsqaUBKTNV-1" source="13oA7SEDSkNbHaSKGy5j-1" target="13oA7SEDSkNbHaSKGy5j-43">
          <mxGeometry width="50" height="50" relative="1" as="geometry">
            <mxPoint x="390" y="580" as="sourcePoint" />
            <mxPoint x="440" y="530" as="targetPoint" />
          </mxGeometry>
        </mxCell>
        <mxCell id="13oA7SEDSkNbHaSKGy5j-54" value="&quot;planning-created&quot;-topic in queue" style="verticalLabelPosition=bottom;html=1;verticalAlign=top;align=center;strokeColor=none;fillColor=#00BEF2;shape=mxgraph.azure.service_bus_topics_and_subscriptions;pointerEvents=1;" vertex="1" parent="WIyWlLk6GJQsqaUBKTNV-1">
          <mxGeometry x="40" y="710" width="120" height="90" as="geometry" />
        </mxCell>
      </root>
    </mxGraphModel>
  </diagram>
</mxfile>
